<svg width="11" height="10" viewBox="0 0 11 10" fill="none" xmlns="http://www.w3.org/2000/svg">
<path d="M4.74486 0.345361C4.89454 -0.115294 5.54624 -0.115294 5.69592 0.345361L6.58549 3.08319C6.65243 3.2892 6.84441 3.42868 7.06102 3.42868H9.93974C10.4241 3.42868 10.6255 4.04849 10.2336 4.33319L7.9047 6.02526C7.72945 6.15258 7.65613 6.37826 7.72306 6.58427L8.61264 9.3221C8.76231 9.78276 8.23507 10.1658 7.84322 9.88112L5.51428 8.18905C5.33904 8.06173 5.10174 8.06173 4.9265 8.18905L2.59756 9.88112C2.20571 10.1658 1.67847 9.78275 1.82814 9.3221L2.71772 6.58427C2.78465 6.37826 2.71132 6.15258 2.53608 6.02526L0.207146 4.33319C-0.184711 4.04849 0.0166775 3.42868 0.501039 3.42868H3.37976C3.59637 3.42868 3.78835 3.2892 3.85529 3.08319L4.74486 0.345361Z" fill="#6B7684"/>
</svg>