<svg width="14" height="14" viewBox="0 0 14 14" fill="none" xmlns="http://www.w3.org/2000/svg">
<path d="M5.65851 0.705968C5.94819 -0.235104 7.28032 -0.235101 7.57 0.705971L8.41762 3.45961C8.54677 3.87915 8.93441 4.16541 9.37337 4.16541H12.2266C13.1822 4.16541 13.5934 5.3774 12.8351 5.95893L10.4355 7.79925C10.1038 8.05362 9.96529 8.48746 10.0883 8.88696L10.9826 11.7925C11.2692 12.7234 10.1912 13.473 9.41835 12.8802L7.22281 11.1965C6.86382 10.9211 6.3647 10.9211 6.00571 11.1965L3.81016 12.8802C3.03727 13.473 1.95932 12.7234 2.24587 11.7925L3.14025 8.88696C3.26323 8.48746 3.12474 8.05362 2.79306 7.79925L0.393387 5.95893C-0.364886 5.3774 0.046351 4.16541 1.00194 4.16541H3.85515C4.29411 4.16541 4.68175 3.87915 4.81089 3.45961L5.65851 0.705968Z" fill="#FFD158"/>
</svg>